<?xml version="1.0" encoding="UTF-8"?>
<svg width="8px" height="15px" viewBox="0 0 8 15" version="1.1" xmlns="http://www.w3.org/2000/svg" xmlns:xlink="http://www.w3.org/1999/xlink">
    <title>facebook</title>
    <g id="Page-1" stroke="none" stroke-width="1" fill="none" fill-rule="evenodd">
        <g id="Home" transform="translate(-1286.000000, -23.000000)" fill="#FFFFFF" fill-rule="nonzero">
            <path d="M1291.06641,37.875 L1291.06641,30.875 L1293.00781,30.875 L1293.25391,28.46875 L1291.03906,28.46875 L1291.03906,27.265625 C1291.03906,27.1015625 1291.04818,26.9602865 1291.06641,26.8417969 C1291.08464,26.7233073 1291.12565,26.6230469 1291.18945,26.5410156 C1291.25326,26.4589844 1291.34896,26.3951823 1291.47656,26.3496094 C1291.60417,26.3040365 1291.78646,26.28125 1292.02344,26.28125 L1292.02344,26.28125 L1293.22656,26.28125 L1293.22656,23.875 L1291.28516,23.875 C1290.70182,23.875 1290.21419,23.9479167 1289.82227,24.09375 C1289.43034,24.2395833 1289.10677,24.4446615 1288.85156,24.7089844 C1288.59635,24.9733073 1288.41862,25.3014323 1288.31836,25.6933594 C1288.2181,26.0852865 1288.16797,26.5273438 1288.16797,27.0195312 L1288.16797,27.0195312 L1288.16797,28.46875 L1286.74609,28.46875 L1286.74609,30.875 L1288.19531,30.875 L1288.19531,37.875 L1291.06641,37.875 Z" id="facebook"></path>
        </g>
    </g>
</svg>